HIERARCHY
ROOT Hips
{
	OFFSET 0.00000 0.00000 0.00000
	CHANNELS 6 Xposition Yposition Zposition Zrotation Yrotation Xrotation 
	JOINT LHipJoint
	{
		OFFSET 0 0 0
		CHANNELS 3 Zrotation Yrotation Xrotation
		JOINT LeftHip
		{
			OFFSET 1.38615 -1.80049 0.80104
			CHANNELS 3 Zrotation Yrotation Xrotation
			JOINT LeftKnee
			{
				OFFSET 2.50172 -6.87341 0.00000
				CHANNELS 3 Zrotation Yrotation Xrotation
				JOINT LeftAnkle
				{
					OFFSET 2.67523 -7.35014 0.00000
					CHANNELS 3 Zrotation Yrotation Xrotation
					JOINT LeftToe
					{
						OFFSET 0.17446 -0.47932 2.13155
						CHANNELS 3 Zrotation Yrotation Xrotation
						End Site
						{
							OFFSET 0.00000 -0.00000 1.10023
						}
					}
				}
			}
		}
	}
	JOINT RHipJoint
	{
		OFFSET 0 0 0
		CHANNELS 3 Zrotation Yrotation Xrotation
		JOINT RightHip
		{
			OFFSET -1.18047 -1.80049 0.80104
			CHANNELS 3 Zrotation Yrotation Xrotation
			JOINT RightKnee
			{
				OFFSET -2.59789 -7.13765 0.00000
				CHANNELS 3 Zrotation Yrotation Xrotation
				JOINT RightAnkle
				{
					OFFSET -2.62125 -7.20183 0.00000
					CHANNELS 3 Zrotation Yrotation Xrotation
					JOINT RightToe
					{
						OFFSET -0.31287 -0.85960 2.07814
						CHANNELS 3 Zrotation Yrotation Xrotation
						End Site
						{
							OFFSET -0.00000 -0.00000 1.11766
						}
					}
				}
			}
		}
	}
	JOINT lowerback
	{
		OFFSET 0 0 0
		CHANNELS 3 Zrotation Yrotation Xrotation
		JOINT Chest
		{
			OFFSET -0.01587 2.16157 -0.12309
			CHANNELS 3 Zrotation Yrotation Xrotation
			JOINT Chest2
			{
				OFFSET 0.04727 2.16674 -0.03569
				CHANNELS 3 Zrotation Yrotation Xrotation
				JOINT lowerneck
				{
					OFFSET 0 0 0
					CHANNELS 3 Zrotation Yrotation Xrotation
					JOINT Neck
					{
						OFFSET -0.08586 1.60335 0.32783
						CHANNELS 3 Zrotation Yrotation Xrotation
						JOINT Head
						{
							OFFSET 0.07583 1.65857 -0.31618
							CHANNELS 3 Zrotation Yrotation Xrotation
							End Site
							{
								OFFSET 0.03386 1.69434 -0.14584
							}
						}
					}
				}
				JOINT LeftCollar
				{
					OFFSET 0 0 0
					CHANNELS 3 Zrotation Yrotation Xrotation
					JOINT LeftShoulder
					{
						OFFSET 3.17393 1.01901 -0.52897
CHANNELS 3 Zrotation Xrotation Yrotation
						JOINT LeftElbow
						{
OFFSET 0 -5.252870 -0.000000
CHANNELS 3 Zrotation Xrotation Yrotation
							JOINT LeftWrist
							{
OFFSET 0 -3.510140 0.000000
CHANNELS 3 Zrotation Xrotation Yrotation
								JOINT lhand
								{
									OFFSET 0 0 0
CHANNELS 3 Zrotation Xrotation Yrotation
									JOINT LFingers
									{
OFFSET 0 -0.706180 -0.000000
CHANNELS 3 Zrotation Xrotation Yrotation
										End Site
										{
OFFSET 0 -0.569340 -0.000000
										}
									}
								}
								JOINT LThumb
								{
OFFSET 0 0.000000 0.000000
CHANNELS 3 Zrotation Xrotation Yrotation
									End Site
									{
OFFSET 0 -0.578030 0.578030
									}
								}
							}
						}
					}
				}
				JOINT RightCollar
				{
					OFFSET 0 0 0
					CHANNELS 3 Zrotation Yrotation Xrotation
					JOINT RightShoulder
					{
						OFFSET -2.99471 1.26495 -0.61125
CHANNELS 3 Zrotation Xrotation Yrotation
						JOINT RightElbow
						{
OFFSET 0 -5.287210 -0.000000
CHANNELS 3 Zrotation Xrotation Yrotation
							JOINT RightWrist
							{
OFFSET 0 -3.505440 0.000000
CHANNELS 3 Zrotation Xrotation Yrotation
								JOINT rhand
								{
									OFFSET 0 0 0
CHANNELS 3 Zrotation Xrotation Yrotation
									JOINT RFingers
									{
OFFSET 0 -0.885000 -0.000000
CHANNELS 3 Zrotation Xrotation Yrotation
										End Site
										{
OFFSET 0 -0.713510 -0.000000
										}
									}
								}
								JOINT RThumb
								{
OFFSET 0 0.000000 0.000000
CHANNELS 3 Zrotation Xrotation Yrotation
									End Site
									{
OFFSET 0 -0.724400 0.724400
									}
								}
							}
						}
					}
				}
			}
		}
	}
}
MOTION
Frames: 8
Frame Time: 0.008333333333333333
-8.559004 17.633350 10.949931 1.001327 0.243144 0.200444 0.000000 0.000000 0.000000 -20.915917 -4.557613 -25.144599 3.404981 11.323493 33.378709 0.182657 -8.622664 -9.090665 1.377164 -7.425300 -20.982067 0.000000 0.000000 0.000000 13.739552 1.934435 -11.196667 -11.419135 -18.132582 64.133507 -0.183066 -2.980231 7.611737 -0.019541 -0.392230 1.077307 -0.899955 -0.786975 1.922355 4.338766 -1.028800 0.131562 5.009923 -0.505843 -0.847624 -6.117237 -0.332398 -17.840473 1.678868 0.933101 26.564891 1.800793 0.015179 11.605666 0.000000 0.000000 0.000000 -6.175490 -28.352561 -70.945955 77.217510 -59.372934 48.953422 -2.948475 -36.847499 -53.777375 0.000000 0.000000 0.000000 -7.125000 0.000000 0.000000 -76.342239 70.532369 55.530611 0.000000 0.000000 0.000000 -6.852586 -19.475150 46.470705 -95.976834 -59.863072 -65.173687 -27.988370 -14.339041 -13.744600 0.000000 0.000000 0.000000 7.125000 0.000000 0.000000 -0.391187 14.497187 -0.281127
-8.549011 17.632449 10.998994 1.075982 0.260631 0.150132 0.000000 0.000000 0.000000 -21.051951 -4.510438 -24.890396 3.407944 11.327879 33.393727 0.196571 -8.552193 -9.262196 1.346692 -7.345301 -20.743202 0.000000 0.000000 0.000000 13.646655 2.020506 -11.502402 -11.597405 -18.212145 64.703321 -0.177198 -3.288493 7.513612 -0.033223 0.277510 -0.764478 -0.971066 -0.726525 1.869864 4.298098 -0.948801 0.076486 5.005769 -0.464130 -0.881872 -6.240112 -0.384395 -17.633619 1.687205 0.879304 26.577672 1.815578 -0.020464 11.571999 0.000000 0.000000 0.000000 -6.064670 -28.259083 -71.037864 77.531930 -59.403203 49.224066 -3.251624 -37.089298 -53.729126 0.000000 0.000000 0.000000 -7.125000 0.000000 0.000000 -76.366117 70.415507 55.408434 0.000000 0.000000 0.000000 -6.911757 -19.190650 46.285115 -96.494303 -59.837015 -65.621062 -27.775910 -14.335323 -13.702799 0.000000 0.000000 0.000000 7.125000 0.000000 0.000000 -0.250360 14.572161 -0.179980
-8.539018 17.631549 11.048057 1.150636 0.278118 0.099820 0.000000 0.000000 0.000000 -21.187984 -4.463263 -24.636193 3.410907 11.332266 33.408745 0.210485 -8.481721 -9.433727 1.316221 -7.265302 -20.504337 0.000000 0.000000 0.000000 13.553758 2.106576 -11.808136 -11.775675 -18.291709 65.273134 -0.171331 -3.596754 7.415486 -0.046905 0.947251 -2.606264 -1.042176 -0.666076 1.817374 4.257431 -0.868802 0.021411 5.001615 -0.422416 -0.916120 -6.362987 -0.436392 -17.426766 1.695542 0.825506 26.590453 1.830364 -0.056106 11.538332 0.000000 0.000000 0.000000 -5.953851 -28.165606 -71.129773 77.846350 -59.433471 49.494710 -3.554773 -37.331097 -53.680876 0.000000 0.000000 0.000000 -7.125000 0.000000 0.000000 -76.389994 70.298646 55.286256 0.000000 0.000000 0.000000 -6.970929 -18.906150 46.099524 -97.011771 -59.810959 -66.068437 -27.563450 -14.331605 -13.660998 0.000000 0.000000 0.000000 7.125000 0.000000 0.000000 -0.109533 14.647135 -0.078834
-8.528917 17.630752 11.096979 1.229185 0.299481 0.049724 0.000000 0.000000 0.000000 -21.329200 -4.419977 -24.380321 3.413403 11.335956 33.421384 0.224134 -8.413258 -9.602096 1.284480 -7.181448 -20.254195 0.000000 0.000000 0.000000 13.454793 2.186854 -12.115595 -11.953817 -18.370820 65.842100 -0.164772 -3.899612 7.303479 -0.059760 1.577949 -4.340682 -1.118602 -0.611015 1.762194 4.214648 -0.796408 -0.022799 4.998288 -0.384903 -0.936914 -6.480949 -0.482539 -17.254424 1.711624 0.779042 26.611450 1.848692 -0.087146 11.514278 0.000000 0.000000 0.000000 -5.834559 -28.092054 -71.207263 78.157849 -59.463337 49.762853 -3.856383 -37.570820 -53.630113 0.000000 0.000000 0.000000 -7.125000 0.000000 0.000000 -76.406969 70.181630 55.157234 0.000000 0.000000 0.000000 -7.022713 -18.650761 45.928325 -97.509044 -59.785832 -66.498345 -27.358170 -14.332424 -13.628413 0.000000 0.000000 0.000000 7.125000 0.000000 0.000000 0.027202 14.710922 0.019393
-8.517036 17.631652 11.143602 1.371610 0.384419 0.003159 0.000000 0.000000 0.000000 -21.555400 -4.440456 -24.097070 3.408232 11.328229 33.395008 0.233430 -8.377732 -9.718609 1.231931 -7.034375 -19.819108 0.000000 0.000000 0.000000 13.256305 2.172126 -12.451337 -12.129850 -18.442512 66.397157 -0.146878 -4.113844 6.963816 -0.059063 1.568363 -4.314277 -1.282203 -0.644333 1.662906 4.137175 -0.848754 0.111202 5.008513 -0.416275 -0.737061 -6.518334 -0.432750 -17.648088 1.854716 0.852854 26.767178 1.925119 -0.042702 11.647871 0.000000 0.000000 0.000000 -5.576318 -28.345298 -71.048281 78.421434 -59.486605 49.989983 -4.132750 -37.776482 -53.538117 0.000000 0.000000 0.000000 -7.125000 0.000000 0.000000 -76.310732 70.062096 54.915957 0.000000 0.000000 0.000000 -6.953346 -18.872807 45.993132 -97.675114 -59.775956 -66.641816 -27.270647 -14.407659 -13.746960 0.000000 0.000000 0.000000 7.125000 0.000000 0.000000 0.096831 14.591242 0.069734
-8.505156 17.632553 11.190225 1.514034 0.469357 -0.043405 0.000000 0.000000 0.000000 -21.781600 -4.460935 -23.813819 3.403062 11.320502 33.368632 0.242725 -8.342206 -9.835123 1.179383 -6.887303 -19.384021 0.000000 0.000000 0.000000 13.057817 2.157398 -12.787079 -12.305884 -18.514203 66.952214 -0.128984 -4.328076 6.624153 -0.058366 1.558777 -4.287872 -1.445804 -0.677652 1.563619 4.059703 -0.901099 0.245202 5.018738 -0.447648 -0.537208 -6.555719 -0.382961 -18.041753 1.997809 0.926666 26.922907 2.001545 0.001742 11.781465 0.000000 0.000000 0.000000 -5.318078 -28.598542 -70.889299 78.685019 -59.509873 50.217113 -4.409116 -37.982145 -53.446120 0.000000 0.000000 0.000000 -7.125000 0.000000 0.000000 -76.214494 69.942562 54.674681 0.000000 0.000000 0.000000 -6.883978 -19.094853 46.057939 -97.841184 -59.766079 -66.785286 -27.183124 -14.482895 -13.865506 0.000000 0.000000 0.000000 7.125000 0.000000 0.000000 0.166460 14.471563 0.120075
-8.493275 17.633453 11.236848 1.656458 0.554294 -0.089970 0.000000 0.000000 0.000000 -22.007800 -4.481414 -23.530568 3.397891 11.312775 33.342256 0.252021 -8.306680 -9.951636 1.126834 -6.740231 -18.948934 0.000000 0.000000 0.000000 12.859329 2.142671 -13.122820 -12.481917 -18.585895 67.507271 -0.111090 -4.542308 6.284490 -0.057668 1.549191 -4.261467 -1.609404 -0.710970 1.464331 3.982231 -0.953444 0.379202 5.028963 -0.479020 -0.337355 -6.593105 -0.333172 -18.435417 2.140901 1.000478 27.078636 2.077971 0.046186 11.915059 0.000000 0.000000 0.000000 -5.059837 -28.851786 -70.730317 78.948605 -59.533141 50.444242 -4.685483 -38.187808 -53.354124 0.000000 0.000000 0.000000 -7.125000 0.000000 0.000000 -76.118257 69.823028 54.433405 0.000000 0.000000 0.000000 -6.814611 -19.316899 46.122746 -98.007254 -59.756203 -66.928756 -27.095601 -14.558130 -13.984053 0.000000 0.000000 0.000000 7.125000 0.000000 0.000000 0.236089 14.351883 0.170416
-8.482680 17.634586 11.284113 1.749420 0.660096 -0.166062 0.000000 0.000000 0.000000 -22.174605 -4.522382 -23.221469 3.385986 11.294956 33.281422 0.258244 -8.283997 -10.029600 1.081359 -6.607164 -18.557522 0.000000 0.000000 0.000000 12.735027 2.104025 -13.417709 -12.651555 -18.651280 68.038320 -0.088445 -4.784228 5.828020 -0.056310 1.530459 -4.209804 -1.711127 -0.724515 1.417704 3.916745 -0.975797 0.458256 5.017341 -0.493226 -0.227210 -6.667502 -0.292136 -18.590108 2.298516 1.049621 27.166270 2.160043 0.079448 11.975110 0.000000 0.000000 0.000000 -4.871031 -28.967074 -70.639233 79.187271 -59.553264 50.649989 -4.887414 -38.329753 -53.312269 0.000000 0.000000 0.000000 -7.125000 0.000000 0.000000 -76.116372 69.742774 54.330836 0.000000 0.000000 0.000000 -6.775467 -19.382411 46.126800 -98.179718 -59.745451 -67.077746 -27.074154 -14.604659 -14.100920 0.000000 0.000000 0.000000 7.125000 0.000000 0.000000 0.260756 14.225380 0.188675
